<svg id="Layer_1" data-name="Layer 1" xmlns="http://www.w3.org/2000/svg" viewBox="0 0 283.76 104.02"><defs><style>.cls-1{fill:#3f9dd3;}.cls-2{fill:#fcd53e;}</style></defs><path class="cls-1" d="M43.27,2.17a13.21,13.21,0,0,0,2.5.35,37.05,37.05,0,0,1,7.08,1.6,9.64,9.64,0,0,1,5.89,5.34.65.65,0,0,0,.68.44,42.68,42.68,0,0,1,5.64.63,3.54,3.54,0,0,1,2.82,4.3A2.26,2.26,0,0,1,67.29,16a3.72,3.72,0,0,1-3.22,1.44c-.42,0-.53.11-.57.46-.08.75-.19,1.5-.27,2.25a2.75,2.75,0,0,1-2.79,2.6,10.09,10.09,0,0,1-3.5-.48,1.09,1.09,0,0,0-1.38.41c-.52.68-.55.67-1.24.1a14.65,14.65,0,0,0-7.47-3.08,64.15,64.15,0,0,0-11.17-.47,33,33,0,0,0-4.44.43c-.41.06-.63,0-.74-.4s-.29-.34-.62-.29a8.26,8.26,0,0,1-4.66-.59,2.19,2.19,0,0,1-1.39-2.52c.1-.83.21-1.66.32-2.48.05-.37,0-.59-.46-.69C21,12.1,20,9.58,21,7.67a3.81,3.81,0,0,1,.64-.84,3.86,3.86,0,0,1,3.43-1c1.45.19,2.91.35,4.37.53l.24,0c.34,0,.69.4.95.22s.32-.59.5-.89A6.8,6.8,0,0,1,36,2.54c.71-.14,1.43-.25,2.15-.37ZM55.94,14.6A6.72,6.72,0,0,0,55.82,13a6.9,6.9,0,0,0-5.16-5,31.29,31.29,0,0,0-6-1.19A27.67,27.67,0,0,0,36.74,7a4.63,4.63,0,0,0-4.24,4.23c-.2,1.3-.34,2.62-.5,3.93-.1.83-.2,1.66-.25,2.49,0,.36.05.76.61.7,1-.11,1.91-.2,2.86-.26a55.33,55.33,0,0,1,13.17.71,14.81,14.81,0,0,1,5.41,2.17c.7.46,1.33.25,1.43-.5C55.49,18.43,55.72,16.42,55.94,14.6Zm7.87,1.52a7.76,7.76,0,0,0,.84,0,2.22,2.22,0,0,0,2-2.61,2.36,2.36,0,0,0-2-1.79c-1.59-.23-3.19-.44-4.79-.59A2.54,2.54,0,0,0,57,13.27c-.3,2.12-.53,4.24-.76,6.37A1.06,1.06,0,0,0,57.12,21a8.77,8.77,0,0,0,3.37.46A1.43,1.43,0,0,0,62,19.94c.08-.81.18-1.62.27-2.42C62.41,16.29,62.68,16.07,63.81,16.12ZM23.27,8.9h-.75c-.73,0-.78,0-.6.76a2.49,2.49,0,0,0,2.28,1.81c1,.12,1.35.51,1.22,1.53s-.24,2.06-.36,3.09a1,1,0,0,0,.58,1.1,7.44,7.44,0,0,0,3.95.54c.8-.12,1.1-.5,1.21-1.31.05-.44.11-.88.16-1.33.18-1.53.4-3.06.54-4.6a2.56,2.56,0,0,0-2.35-2.95c-1.53-.21-3.07-.41-4.61-.55a2.44,2.44,0,0,0-2.3,1c-.1.14-.24.36-.2.49s.31.11.49.13S23.06,8.52,23.27,8.9Z" transform="translate(-2.31 -2.17)"/><path class="cls-2" d="M52.51,75.57c-4.34,0-8.69,0-13,0-.51,0-.64.14-.64.65,0,1.56,0,1.56,1.55,1.56,5.15,0,10.29,0,15.43,0,.5,0,.68.11.66.63-.06,2.22.06,4.45-.07,6.67a7.68,7.68,0,0,1-3.48,6,19.33,19.33,0,0,1-7,2.9,28.16,28.16,0,0,1-8.42.86,26.88,26.88,0,0,1-11.61-3,8.87,8.87,0,0,1-4.33-4.86,7.87,7.87,0,0,1-.39-2.59q0-8.19,0-16.39a9.08,9.08,0,0,1,7.35-9,9.55,9.55,0,0,1,1.77-.16c5.71,0,11.43-.07,17.14,0a11.33,11.33,0,0,0,11.08-9.71,38,38,0,0,0,.11-4.52c0-1.43,0-2.86,0-4.28,0-.25-.06-.51.34-.5,2.38,0,4.77-.11,7.16.08a7.59,7.59,0,0,1,6.28,4.36A24.49,24.49,0,0,1,74.59,51a34.75,34.75,0,0,1,.83,7.33,26,26,0,0,1-1.6,9,22.24,22.24,0,0,1-2.33,5,7.07,7.07,0,0,1-6.18,3.23C61.05,75.58,56.78,75.57,52.51,75.57Zm-.53,10a3.24,3.24,0,0,0-3.29-3.28,3.33,3.33,0,0,0,0,6.65A3.28,3.28,0,0,0,52,85.57Z" transform="translate(-2.31 -2.17)"/><path class="cls-1" d="M26.46,39.75c3.92,0,7.84,0,11.76,0,.49,0,.61-.14.61-.61,0-1.6,0-1.6-1.59-1.6-5.12,0-10.25,0-15.37,0-.58,0-.71-.17-.7-.71,0-2.43,0-4.86,0-7.28a7.07,7.07,0,0,1,1.81-5,8.69,8.69,0,0,1,3.68-2.1,33.48,33.48,0,0,1,7.56-1.33,53.26,53.26,0,0,1,8.93,0,22.84,22.84,0,0,1,6.95,1.24,9.6,9.6,0,0,1,6,6.45,7.87,7.87,0,0,1,.23,2.05c0,5.57,0,11.14,0,16.71a8.84,8.84,0,0,1-7.3,8.84A12.57,12.57,0,0,1,47,56.6H29.91a11.2,11.2,0,0,0-10.78,9.32A32.21,32.21,0,0,0,19,70.2c0,1.63,0,3.26,0,4.89,0,.26,0,.49-.37.48-2.18,0-4.36.09-6.54-.07-3.36-.24-5.6-2.12-7.12-5a25.07,25.07,0,0,1-2.14-7.29,32.52,32.52,0,0,1,1-15.46,10.76,10.76,0,0,1,10.09-8c2.1-.12,4.2,0,6.31-.05S24.38,39.75,26.46,39.75Zm-.84-10a3.33,3.33,0,0,0,3.25,3.35,3.41,3.41,0,0,0,3.33-3.32,3.35,3.35,0,0,0-3.32-3.36A3.27,3.27,0,0,0,25.62,29.73Z" transform="translate(-2.31 -2.17)"/><path class="cls-1" d="M77.07,96.11q.48-2.73,1-5.46.81-4.53,1.61-9.08c.06-.36.2-.49.59-.49q4.14,0,8.26,0c.37,0,.53.07.6.48.79,4.69,1.61,9.38,2.42,14.07,0,.22.09.43.18.82l1-9q.33-2.91.65-5.83c0-.37.16-.55.59-.54q3.7,0,7.41,0c.52,0,.53.15.44.59q-2.24,12-4.42,24c-.08.43-.21.57-.65.56q-4.78,0-9.55,0c-.45,0-.57-.12-.65-.55-.71-4.36-1.45-8.7-2.27-13.07-.2,1-.41,2-.6,3q-1,5.11-2,10.25c-.06.29-.18.4-.48.4q-4.72,0-9.43,0c-.39,0-.43-.22-.47-.48q-1.11-5.94-2.2-11.89L66.86,81.39c0-.08,0-.16,0-.26a2,2,0,0,1,.32,0c2.55,0,5.1,0,7.65,0,.36,0,.5.1.54.47q.81,7.28,1.64,14.56Z" transform="translate(-2.31 -2.17)"/><path class="cls-1" d="M234.68,87.92c0,1.76,0,3.53,0,5.29q.17,6.12.4,12.22c0,.63-.15.77-.77.76q-3.69-.06-7.4,0c-.63,0-.72-.2-.7-.75.18-4.87.31-9.74.24-14.61,0-3-.15-5.94-.23-8.92,0-.8,0-.8.75-.8,3.76,0,7.51,0,11.27,0a.91.91,0,0,1,1,.65q3.83,8.92,7.71,17.83c.09.2.18.4.23.49,0-1.54,0-3.17,0-4.79-.06-2.55-.15-5.09-.24-7.64-.06-1.91-.13-3.82-.2-5.73,0-.79,0-.79.77-.79,2.39,0,4.78,0,7.17,0,.45,0,.56.11.54.59-.1,2.42-.17,4.85-.19,7.27q0,6.21,0,12.41c0,1.45.09,2.89.16,4.33,0,.34,0,.48-.41.48q-5.81,0-11.63,0c-.43,0-.48-.28-.6-.55q-3.82-8.59-7.63-17.19C234.85,88.24,234.82,88,234.68,87.92Z" transform="translate(-2.31 -2.17)"/><path class="cls-1" d="M215.39,55.9c0,1.51,0,3.13,0,4.75,0,2.38.15,4.76.23,7.14.07,2,.13,4,.21,6,0,.38-.09.49-.47.48q-3.94,0-7.89,0c-.48,0-.51-.19-.5-.59.14-4.42.31-8.84.25-13.27,0-3.52-.14-7-.25-10.57,0-.5.11-.62.6-.61q5.78,0,11.57,0a.74.74,0,0,1,.79.56q3.83,8.86,7.67,17.71c.11.26.24.51.3.65,0-1.65,0-3.39,0-5.13-.05-2.58-.15-5.17-.23-7.76-.06-1.81-.1-3.62-.2-5.43,0-.52.15-.6.61-.59,2.35,0,4.69,0,7,0,.84,0,.84,0,.81.82-.15,4.32-.24,8.64-.21,13,0,3.5.07,7,.22,10.51,0,.56-.08.76-.7.75-3.7,0-7.39,0-11.09,0a.79.79,0,0,1-.85-.57q-3.84-8.72-7.72-17.42A2.49,2.49,0,0,0,215.39,55.9Z" transform="translate(-2.31 -2.17)"/><path class="cls-1" d="M265.4,106.16c-2.25,0-4.49,0-6.73,0-.62,0-.74-.18-.72-.75.24-4.91.29-9.82.26-14.73,0-3-.11-5.94-.25-8.91,0-.56.08-.78.7-.81,4.17-.24,8.35-.35,12.53-.21a22.7,22.7,0,0,1,8.63,1.74,9.83,9.83,0,0,1,6.05,8.2,15.18,15.18,0,0,1-.62,7.59,11.3,11.3,0,0,1-7.25,6.78,20.49,20.49,0,0,1-6.72,1.1c-2,0-3.92,0-5.88,0Zm1.24-12.63v5.26c0,.26-.05.53.38.52,2,0,4,.11,6.05-.13a3.77,3.77,0,0,0,3.49-2.86,9.88,9.88,0,0,0,0-5.6,4,4,0,0,0-3.47-3,32.51,32.51,0,0,0-5.92,0c-.39,0-.55.17-.54.6C266.66,90.07,266.64,91.8,266.64,93.53Z" transform="translate(-2.31 -2.17)"/><path class="cls-1" d="M148.07,106.17h-12.8c-.49,0-.66-.08-.63-.62.29-5.81.3-11.61.22-17.42,0-2.18-.13-4.36-.22-6.54,0-.39.07-.52.49-.52q12.92,0,25.84,0c.43,0,.54.14.54.56,0,1.69,0,3.38,0,5.07,0,.51-.13.65-.64.65-5.76,0-11.52,0-17.27,0-.78,0-.78,0-.78.79s0,1.35,0,2c0,.36.08.49.47.5,4.28.07,8.56,0,12.84-.07.82,0,1.63,0,2.45-.1.37,0,.55.06.54.49,0,1.65,0,3.3,0,5,0,.43-.16.49-.54.47-5-.15-10-.19-15.06-.16-.54,0-.75.11-.71.69.05.82,0,1.63,0,2.45,0,.36.12.45.46.44l14.13-.19c1.31,0,2.61-.12,3.91-.18.3,0,.57-.06.49.42a32.57,32.57,0,0,0-.3,5.67c0,.51-.14.64-.65.63C156.6,106.16,152.33,106.17,148.07,106.17Z" transform="translate(-2.31 -2.17)"/><path class="cls-1" d="M209.66,81.09c4.24,0,8.49,0,12.73,0,.62,0,.74.18.73.76,0,1.63,0,3.26,0,4.89,0,.52-.14.64-.65.64-5.71,0-11.43,0-17.14,0-1,0-.88-.14-.89.92,0,.63,0,1.26,0,1.9,0,.36.09.48.48.49,3.52.07,7,0,10.58,0,1.57,0,3.14-.07,4.71-.13.38,0,.54.07.53.5q0,2.45,0,4.89c0,.42-.1.55-.55.54-5-.17-10-.2-15-.17-.56,0-.74.13-.71.7.05.79,0,1.59,0,2.38,0,.36.07.51.47.51,4.71-.08,9.42-.13,14.13-.2,1.31,0,2.61-.12,3.91-.18.31,0,.56,0,.48.43a34.53,34.53,0,0,0-.3,5.66c0,.45-.07.64-.59.64q-12.86,0-25.72,0c-.44,0-.58-.09-.56-.57.3-5.86.31-11.73.22-17.6,0-2.12-.12-4.24-.22-6.35,0-.47.09-.58.56-.58C201.08,81.1,205.37,81.09,209.66,81.09Z" transform="translate(-2.31 -2.17)"/><path class="cls-1" d="M118.14,106.17c-4.26,0-8.53,0-12.79,0-.57,0-.67-.19-.65-.69.08-2.47.1-4.93.2-7.4s.08-4.88,0-7.33c0-3-.14-6-.24-9,0-.53.09-.72.68-.71q12.77,0,25.53,0c.49,0,.67.09.66.62,0,1.67,0,3.35,0,5,0,.51-.15.64-.65.64-5.77,0-11.55,0-17.32,0-.64,0-.81.18-.76.78a20.62,20.62,0,0,1,0,2.08c0,.33.08.46.44.47,4.46,0,8.93,0,13.39-.13.65,0,1.31,0,2,0,.36,0,.5.08.49.47q0,2.48,0,5c0,.46-.16.52-.57.5q-6.6-.21-13.21-.16c-.7,0-1.39,0-2.08,0-.32,0-.43.1-.42.42,0,.89,0,1.79,0,2.69,0,.4.16.47.51.46,4,0,8-.08,12.05-.15,2,0,3.95-.13,5.93-.23.43,0,.57.09.49.54a33.78,33.78,0,0,0-.25,5.6c0,.52-.18.59-.63.59Z" transform="translate(-2.31 -2.17)"/><path class="cls-1" d="M189.1,74.62a23.25,23.25,0,0,1-8-1.12,10.71,10.71,0,0,1-7.18-7.71,16.13,16.13,0,0,1-.08-8.22,10.65,10.65,0,0,1,7.69-8.12,25.09,25.09,0,0,1,14.71.07c4.34,1.34,6.82,4.43,7.68,8.83a16.48,16.48,0,0,1-.16,7.16,10.83,10.83,0,0,1-8.35,8.35A23.75,23.75,0,0,1,189.1,74.62Zm-.24-7.1a13.54,13.54,0,0,0,2.27-.13c2.59-.34,4.17-1.69,4.69-4a8.66,8.66,0,0,0,.16-2.49,5,5,0,0,0-4.24-5,13.26,13.26,0,0,0-6.23.08,4.71,4.71,0,0,0-3.75,4,9.52,9.52,0,0,0,0,3.15,4.69,4.69,0,0,0,3.44,4A10.92,10.92,0,0,0,188.86,67.52Z" transform="translate(-2.31 -2.17)"/><path class="cls-1" d="M90.73,49.2c2.49,0,5,0,7.47,0a24.26,24.26,0,0,1,5.93.68,7.87,7.87,0,0,1,6.15,7.44,14.41,14.41,0,0,1-.32,4.49c-.74,3.14-2.9,4.83-5.86,5.69a21.46,21.46,0,0,1-5.81.71c-2.28,0-4.57,0-6.85,0-.42,0-.56.1-.56.54,0,1.65,0,3.3,0,4.95,0,.42-.1.56-.54.56-2.49,0-5,0-7.47,0-.51,0-.56-.21-.54-.62.25-4.62.26-9.24.25-13.87,0-3.28-.08-6.55-.24-9.83,0-.78,0-.78.72-.78h7.65ZM95,56.11c-1.19,0-2.37,0-3.55,0-.39,0-.53.1-.52.51,0,1.47,0,2.94,0,4.4,0,.41.12.52.51.51,1.8,0,3.6,0,5.39,0A14,14,0,0,0,101,61a1.78,1.78,0,0,0,1.31-1.09c.49-1.62.28-3.23-1.88-3.58A36.57,36.57,0,0,0,95,56.11Z" transform="translate(-2.31 -2.17)"/><path class="cls-1" d="M173.21,91.17a87.32,87.32,0,0,0,8.67-9.59,1,1,0,0,1,.94-.5c3.33,0,6.66,0,10,0h.65c-.22.24-.36.4-.51.55-3.28,3.24-6.54,6.49-9.84,9.71-.44.43-.41.69-.08,1.14,3.3,4.51,6.65,9,10.19,13.3a.41.41,0,0,1,.16.38h-.51c-3.22,0-6.45,0-9.67,0a.83.83,0,0,1-.86-.5c-1.52-2.72-3.17-5.36-4.8-8-.24-.38-.39-.36-.68-.07-1.13,1.14-2.27,2.28-3.43,3.4a.85.85,0,0,0-.21.67c0,1.34,0,2.69,0,4,0,.36-.08.5-.47.49q-3.83,0-7.65,0c-.52,0-.49-.25-.48-.6.17-4.71.31-9.41.24-14.12-.05-3.22-.14-6.43-.25-9.65,0-.57.1-.76.71-.75q3.62.06,7.22,0c.52,0,.69.09.69.65,0,2.9,0,5.79,0,8.69Z" transform="translate(-2.31 -2.17)"/><path class="cls-1" d="M157.33,74.63a23.2,23.2,0,0,1-8.24-1.23,10.43,10.43,0,0,1-6.86-8,16.25,16.25,0,0,1,.18-8,11.23,11.23,0,0,1,8.91-8.37,24.36,24.36,0,0,1,12.57.33,12.39,12.39,0,0,1,7.55,6c.24.44.18.59-.29.76a51.89,51.89,0,0,0-6.2,2.74c-.38.2-.6.23-.86-.21a6.09,6.09,0,0,0-3.21-2.52,10.39,10.39,0,0,0-6.11-.58,5.26,5.26,0,0,0-4.34,4.48A6.12,6.12,0,0,0,152.18,66a5.33,5.33,0,0,0,2.64,1.34,11.94,11.94,0,0,0,5.45,0,5.36,5.36,0,0,0,3.91-3.21c.18-.4.33-.4.68-.21,2,1.09,4.12,2,6.24,2.94.55.23.52.42.31.88a10.93,10.93,0,0,1-7.33,5.9A23.85,23.85,0,0,1,157.33,74.63Z" transform="translate(-2.31 -2.17)"/><path class="cls-1" d="M142.14,49.17c-.9,1.4-1.74,2.7-2.56,4-2.92,4.64-5.86,9.26-8.32,14.17a4.58,4.58,0,0,0-.56,2.32c.06,1.37,0,2.73,0,4.1,0,.41-.13.51-.52.5q-4,0-8,0c-.47,0-.53-.18-.53-.58,0-1.75,0-3.5,0-5.26a2.33,2.33,0,0,0-.27-1.1,105.31,105.31,0,0,0-6.11-10c-1.64-2.51-3.3-5-5-7.5-.12-.18-.3-.34-.29-.58s.28-.06.41-.06c2.88,0,5.76,0,8.63,0a.82.82,0,0,1,.83.53c2.08,3.85,4.18,7.69,6.32,11.6.4-.78.77-1.51,1.15-2.24q2.58-4.78,5.15-9.57a.53.53,0,0,1,.53-.31Z" transform="translate(-2.31 -2.17)"/><path class="cls-2" d="M55.94,14.6c-.22,1.82-.45,3.83-.71,5.82-.1.75-.73,1-1.43.5a14.81,14.81,0,0,0-5.41-2.17A55.33,55.33,0,0,0,35.22,18c-.95.06-1.91.15-2.86.26-.56.06-.63-.34-.61-.7.05-.83.15-1.66.25-2.49.16-1.31.3-2.63.5-3.93A4.63,4.63,0,0,1,36.74,7a27.67,27.67,0,0,1,7.87-.08,31.29,31.29,0,0,1,6,1.19,6.9,6.9,0,0,1,5.16,5A6.72,6.72,0,0,1,55.94,14.6Z" transform="translate(-2.31 -2.17)"/><path class="cls-2" d="M63.81,16.12c-1.13-.05-1.4.17-1.54,1.4-.09.8-.19,1.61-.27,2.42a1.43,1.43,0,0,1-1.51,1.5A8.77,8.77,0,0,1,57.12,21a1.06,1.06,0,0,1-.86-1.34c.23-2.13.46-4.25.76-6.37a2.54,2.54,0,0,1,2.84-2.14c1.6.15,3.2.36,4.79.59a2.36,2.36,0,0,1,2,1.79,2.22,2.22,0,0,1-2,2.61A7.76,7.76,0,0,1,63.81,16.12Z" transform="translate(-2.31 -2.17)"/><path class="cls-2" d="M21.94,8.48a2,2,0,0,1,.3-.49,2.44,2.44,0,0,1,2.3-1c1.54.14,3.08.34,4.61.55a2.56,2.56,0,0,1,2.35,3c-.14,1.54-.36,3.07-.54,4.6-.05.45-.11.89-.16,1.33-.11.81-.41,1.19-1.21,1.31a7.44,7.44,0,0,1-3.95-.54,1,1,0,0,1-.58-1.1c.12-1,.23-2.06.36-3.09s-.18-1.41-1.22-1.53a2.49,2.49,0,0,1-2.28-1.81A1.7,1.7,0,0,1,21.94,8.48Z" transform="translate(-2.31 -2.17)"/></svg>