<?xml version="1.0" encoding="iso-8859-1"?>
<!-- Generator: Adobe Illustrator 16.0.0, SVG Export Plug-In . SVG Version: 6.00 Build 0)  -->
<!DOCTYPE svg PUBLIC "-//W3C//DTD SVG 1.1//EN" "http://www.w3.org/Graphics/SVG/1.1/DTD/svg11.dtd">
<svg version="1.1" id="Capa_1" xmlns="http://www.w3.org/2000/svg" xmlns:xlink="http://www.w3.org/1999/xlink" x="0px" y="0px"
	 width="217.011px" height="217.011px" viewBox="0 0 217.011 217.011" style="enable-background:new 0 0 217.011 217.011;"
	 xml:space="preserve">
<g>
	<g>
		<path d="M115.767,60.462c5.322-3.577,8.994-10.644,8.994-17.004c0-8.979-7.283-16.255-16.249-16.255
			c-8.979,0-16.255,7.276-16.255,16.255c0,6.366,3.666,13.427,8.991,17.004c-12.732,3.236-22.174,14.291-22.174,22.472
			c0,9.685,58.857,9.685,58.857,0C137.931,74.747,128.505,63.692,115.767,60.462z M108.505,90.198l-8.25-8.242l6.948-16.776h-0.07
			l-2.703-3.09c1.303,0.466,2.667,0.752,4.076,0.752c1.41,0,2.762-0.286,4.059-0.746l-2.691,3.09h-0.063l6.933,16.776
			L108.505,90.198z"/>
		<path d="M55.292,160.077c5.319-3.574,8.988-10.644,8.988-17.007c0-8.981-7.286-16.258-16.252-16.258
			c-8.979,0-16.249,7.276-16.249,16.258c0,6.363,3.663,13.42,8.994,17.007c-12.732,3.233-22.174,14.285-22.174,22.476
			c0,9.682,58.861,9.682,58.861,0C77.454,174.362,68.019,163.311,55.292,160.077z M48.028,189.811l-8.248-8.244l6.938-16.776h-0.067
			l-2.707-3.087c1.309,0.463,2.67,0.743,4.077,0.743c1.416,0,2.765-0.28,4.068-0.743l-2.695,3.087h-0.063l6.936,16.776
			L48.028,189.811z"/>
		<path d="M168.986,110.286c-4.164,0-8.165,0.585-12.008,1.571c-1.911-8.504-5.967-16.151-11.617-22.414
			c6.966-8.336,11.18-19.053,11.18-30.744c0-26.488-21.556-48.031-48.041-48.031c-26.476,0-48.019,21.543-48.019,48.031
			c0,11.691,4.211,22.408,11.174,30.744c-5.648,6.263-9.706,13.91-11.615,22.426c-3.854-0.998-7.864-1.583-12.023-1.583
			C21.543,110.286,0,131.83,0,158.312c0,26.487,21.543,48.031,48.016,48.031c22.317,0,41.065-15.314,46.448-35.969
			c4.463,1.327,9.14,2.174,14.035,2.174c4.905,0,9.581-0.847,14.051-2.174c5.371,20.654,24.125,35.969,46.424,35.969
			c26.488,0,48.037-21.544,48.037-48.031C217.011,131.83,195.468,110.286,168.986,110.286z M108.5,14.227
			c24.524,0,44.473,19.954,44.473,44.473c0,24.521-19.948,44.469-44.473,44.469c-24.518,0-44.457-19.948-44.457-44.469
			C64.042,34.181,83.982,14.227,108.5,14.227z M48.016,202.78c-24.515,0-44.457-19.948-44.457-44.469s19.948-44.47,44.457-44.47
			c24.53,0,44.484,19.949,44.484,44.47S72.546,202.78,48.016,202.78z M108.5,165.418c-4.439,0-8.68-0.816-12.708-2.096
			c0.167-1.649,0.262-3.324,0.262-5.017c0-19.802-12.06-36.84-29.219-44.177c1.535-7.423,4.957-14.121,9.804-19.599
			c8.485,7.551,19.628,12.188,31.855,12.188c12.23,0,23.386-4.637,31.867-12.188c4.854,5.469,8.275,12.163,9.804,19.593
			c-17.153,7.331-29.21,24.374-29.21,44.183c0,1.692,0.092,3.36,0.256,5.017C117.186,164.602,112.954,165.418,108.5,165.418z
			 M168.986,202.78c-24.521,0-44.469-19.948-44.469-44.469s19.948-44.47,44.469-44.47c24.516,0,44.476,19.949,44.476,44.47
			S193.501,202.78,168.986,202.78z"/>
		<path d="M176.245,160.077c5.322-3.574,8.993-10.644,8.993-17.007c0-8.981-7.276-16.258-16.252-16.258
			c-8.969,0-16.245,7.276-16.245,16.258c0,6.363,3.659,13.42,8.987,17.007c-12.738,3.233-22.171,14.285-22.171,22.476
			c0,9.682,58.852,9.682,58.852,0C198.409,174.362,188.977,163.311,176.245,160.077z M168.986,189.811l-8.244-8.244l6.941-16.776
			h-0.073l-2.703-3.087c1.303,0.463,2.667,0.743,4.079,0.743c1.413,0,2.765-0.28,4.068-0.743l-2.704,3.087h-0.061l6.936,16.776
			L168.986,189.811z"/>
	</g>
</g>
<g>
</g>
<g>
</g>
<g>
</g>
<g>
</g>
<g>
</g>
<g>
</g>
<g>
</g>
<g>
</g>
<g>
</g>
<g>
</g>
<g>
</g>
<g>
</g>
<g>
</g>
<g>
</g>
<g>
</g>
</svg>
