<?xml version="1.0" encoding="iso-8859-1"?>
<!-- Generator: Adobe Illustrator 16.0.0, SVG Export Plug-In . SVG Version: 6.00 Build 0)  -->
<!DOCTYPE svg PUBLIC "-//W3C//DTD SVG 1.1//EN" "http://www.w3.org/Graphics/SVG/1.1/DTD/svg11.dtd">
<svg version="1.1" id="Capa_1" xmlns="http://www.w3.org/2000/svg" xmlns:xlink="http://www.w3.org/1999/xlink" x="0px" y="0px"
	 width="187.712px" height="187.711px" viewBox="0 0 187.712 187.711" style="enable-background:new 0 0 187.712 187.711;"
	 xml:space="preserve">
<g>
	<path d="M93.854,0C56.514,0,26.24,30.274,26.24,67.609c0,37.344,67.615,120.103,67.615,120.103s67.617-82.759,67.617-120.103
		C161.472,30.274,131.192,0,93.854,0z M93.854,13.526c29.415,0,53.23,23.82,53.23,53.232c0,12.96-4.664,24.794-12.368,34.015
		c-5.22-9.609-16.317-19.087-29.984-22.551c7.987-5.368,13.48-15.959,13.48-25.489c0-13.455-10.911-24.364-24.358-24.364
		c-13.453,0-24.363,10.909-24.363,24.364c0,9.536,5.491,20.121,13.482,25.489c-13.66,3.469-24.761,12.941-29.983,22.551
		c-7.699-9.227-12.368-21.054-12.368-34.015C40.623,37.352,64.444,13.526,93.854,13.526z M81.494,116.039l10.406-30.75h-0.113
		l-4.038-4.635c1.954,0.701,3.99,1.125,6.106,1.125c2.112,0,4.14-0.419,6.093-1.114l-4.033,4.629h-0.104l10.407,30.75
		l-12.363,17.953L81.494,116.039z"/>
</g>
<g>
</g>
<g>
</g>
<g>
</g>
<g>
</g>
<g>
</g>
<g>
</g>
<g>
</g>
<g>
</g>
<g>
</g>
<g>
</g>
<g>
</g>
<g>
</g>
<g>
</g>
<g>
</g>
<g>
</g>
</svg>
